<?xml version="1.0" encoding="UTF-8" standalone="no"?><!DOCTYPE svg  PUBLIC '-//W3C//DTD SVG 1.1//EN'  'http://www.w3.org/Graphics/SVG/1.1/DTD/svg11.dtd'><svg viewBox="0 0 1022.51 360" xmlns="http://www.w3.org/2000/svg" xmlns:xlink="http://www.w3.org/1999/xlink"><style>:root>svg{display:none}:root>svg:target{display:block}</style><svg viewBox="0 0 840 300" id="Instagram" xmlns="http://www.w3.org/2000/svg"><path d="M64.76 49.108c-16.21 6.785-34.03 25.955-39.659 50.017-7.128 30.487 22.534 43.38 24.967 39.152 2.864-4.967-5.315-6.646-6.998-22.465-2.176-20.43 7.322-43.26 19.276-53.276 2.222-1.861 2.116.73 2.116 5.52 0 8.568-.473 85.48-.473 101.531 0 21.72-.897 28.579-2.508 35.356-1.633 6.868-4.257 11.51-2.269 13.297 2.222 2 11.709-2.757 17.2-10.422 6.587-9.193 8.892-20.234 9.306-32.223.5-14.454.478-37.388.5-50.47.02-11.997.202-47.129-.21-68.249-.102-5.18-14.469-10.615-21.249-7.774m575.628 101.653c-.523 11.292-3.022 20.118-6.124 26.343-6.006 12.052-18.468 15.794-23.759-1.53-2.883-9.445-3.018-25.217-.945-38.396 2.11-13.426 8.003-23.565 17.76-22.65 9.623.903 14.128 13.304 13.068 36.233zM478.15 220.811c-.13 18.762-3.083 35.212-9.415 39.99-8.981 6.774-21.052 1.692-18.553-11.998 2.212-12.115 12.671-24.487 27.994-39.605 0 0 .032 3.448-.025 11.613zm-2.453-70.165c-.549 10.284-3.215 20.616-6.124 26.453-6.004 12.052-18.556 15.82-23.758-1.53-3.556-11.855-2.705-27.198-.945-36.865 2.284-12.543 7.819-24.18 17.76-24.18 9.664 0 14.43 10.603 13.067 36.123zm-93.983-.158c-.59 10.893-2.714 19.998-6.124 26.611-6.17 11.97-18.375 15.765-23.758-1.53-3.88-12.472-2.56-29.478-.945-38.664 2.395-13.632 8.394-23.297 17.759-22.38 9.62.939 14.296 13.302 13.068 35.964zm430.704 12.723c-2.352 0-3.425 2.424-4.313 6.504-3.079 14.187-6.316 17.39-10.49 17.39-4.663 0-8.853-7.025-9.93-21.087-.846-11.057-.71-31.414.372-51.663.222-4.16-.926-8.277-12.085-12.331-4.802-1.744-11.782-4.311-15.257 4.078-9.82 23.7-13.662 42.517-14.566 50.16-.047.397-.532.477-.617-.447-.576-6.122-1.863-17.247-2.023-40.621-.031-4.561-.998-8.443-6.031-11.621-3.266-2.062-13.184-5.71-16.756-1.37-3.094 3.548-6.677 13.098-10.4 24.419a2056.41 2056.41 0 01-5.134 15.425s.04-24.826.076-34.243c.016-3.552-2.421-4.736-3.155-4.95-3.308-.96-9.824-2.564-12.59-2.564-3.413 0-4.249 1.907-4.249 4.687 0 .364-.538 32.686-.538 55.286 0 .982 0 2.053.01 3.191-1.888 10.388-8.01 24.489-14.667 24.489-6.665 0-9.81-5.896-9.81-32.84 0-15.718.472-22.552.704-33.92.135-6.549.395-11.577.38-12.718-.049-3.5-6.1-5.263-8.916-5.915-2.828-.657-5.287-.912-7.206-.803-2.717.154-4.64 1.936-4.64 4.387 0 1.315.016 3.814.016 3.814-3.5-5.499-9.128-9.326-12.872-10.435-10.086-2.995-20.611-.341-28.55 10.767-6.31 8.827-10.112 18.823-11.61 33.186-1.094 10.5-.737 21.148 1.208 30.153-2.35 10.16-6.713 14.324-11.49 14.324-6.937 0-11.965-11.322-11.381-30.901.385-12.878 2.962-21.916 5.779-34.99 1.2-5.574.225-8.492-2.223-11.29-2.244-2.564-7.027-3.874-13.904-2.263-4.897 1.15-11.9 2.385-18.307 3.334 0 0 .387-1.542.704-4.261 1.667-14.262-13.83-13.105-18.775-8.55-2.951 2.72-4.96 5.927-5.723 11.694-1.209 9.152 6.255 13.468 6.255 13.468-2.449 11.21-8.452 25.854-14.65 36.441-3.318 5.673-5.858 9.876-9.136 14.344-.012-1.664-.021-3.327-.027-4.983-.075-23.568.239-42.116.377-48.802.135-6.548.397-11.443.383-12.584-.037-2.56-1.532-3.526-4.64-4.75-2.75-1.082-6-1.831-9.37-2.092-4.256-.332-6.82 1.925-6.753 4.593.013.504.013 3.598.013 3.598-3.5-5.499-9.128-9.326-12.872-10.435-10.086-2.994-20.61-.34-28.55 10.767-6.307 8.827-10.439 21.212-11.61 33.077-1.09 11.057-.888 20.454.598 28.37-1.604 7.927-6.215 16.216-11.428 16.216-6.666 0-10.458-5.896-10.458-32.84 0-15.718.472-22.552.704-33.92.134-6.548.394-11.577.38-12.717-.05-3.5-6.1-5.263-8.916-5.916-2.946-.681-5.49-.932-7.443-.788-2.577.192-4.388 2.5-4.388 4.22v3.966c-3.5-5.499-9.128-9.326-12.872-10.435-10.086-2.994-20.552-.297-28.55 10.767-5.215 7.215-9.436 15.213-11.61 32.92-.627 5.116-.905 9.907-.869 14.386-2.08 12.718-11.264 27.376-18.777 27.376-4.397 0-8.584-8.528-8.584-26.702 0-24.208 1.498-58.676 1.752-61.998 0 0 9.493-.162 11.33-.183 4.736-.052 9.025.06 15.331-.263 3.164-.161 6.211-11.513 2.946-12.918-1.48-.636-11.937-1.194-16.083-1.282-3.486-.079-13.191-.797-13.191-.797s.87-22.878 1.073-25.295c.172-2.014-2.434-3.051-3.928-3.68-3.634-1.538-6.886-2.273-10.74-3.068-5.324-1.098-7.74-.024-8.211 4.47-.711 6.82-1.079 26.796-1.079 26.796-3.907 0-17.254-.764-21.162-.764-3.632 0-7.551 15.617-2.53 15.81 5.776.223 15.842.416 22.515.618 0 0-.297 35.036-.297 45.852 0 1.151.01 2.26.012 3.335-3.673 19.143-16.61 29.483-16.61 29.483 2.779-12.664-2.896-22.174-13.118-30.225-3.766-2.966-11.2-8.582-19.519-14.737 0 0 4.818-4.748 9.09-14.301 3.028-6.767 3.159-14.51-4.272-16.218-12.278-2.824-22.401 6.193-25.42 15.82-2.34 7.457-1.092 12.99 3.49 18.738.335.42.698.85 1.073 1.281-2.772 5.342-6.58 12.534-9.804 18.112-8.95 15.485-15.711 27.733-20.821 27.733-4.085 0-4.03-12.435-4.03-24.078 0-10.037.741-25.127 1.333-40.75.196-5.168-2.388-8.111-6.719-10.777-2.631-1.62-8.247-4.805-11.5-4.805-4.869 0-18.915.663-32.187 39.054-1.673 4.839-4.959 13.656-4.959 13.656l.283-46.167c0-1.083-.576-2.13-1.896-2.845-2.237-1.214-8.21-3.698-13.522-3.698-2.53 0-3.793 1.177-3.793 3.523l-.464 72.23c0 5.487.143 11.89.686 14.69.54 2.803 1.416 5.084 2.501 6.441 1.083 1.355 2.336 2.388 4.402 2.814 1.922.396 12.45 1.748 12.997-2.275.656-4.822.68-10.037 6.209-29.487 8.606-30.28 19.827-45.055 25.102-50.302.922-.917 1.975-.972 1.925.53-.226 6.638-1.018 23.227-1.55 37.32-1.43 37.716 5.432 44.706 15.236 44.706 7.502 0 18.076-7.453 29.41-26.32a6626.986 6626.986 0 0018.858-31.595c3.436 3.18 7.291 6.603 11.144 10.26 8.953 8.496 11.892 16.57 9.942 24.23-1.492 5.856-7.11 11.89-17.108 6.025-2.914-1.71-4.158-3.033-7.088-4.962-1.574-1.037-3.978-1.346-5.419-.26-3.743 2.822-5.884 6.412-7.106 10.856-1.19 4.325 3.142 6.61 7.632 8.61 3.866 1.722 12.175 3.281 17.474 3.459 20.646.69 37.186-9.97 48.7-37.465 2.06 23.746 10.832 37.183 26.072 37.183 10.189 0 20.404-13.17 24.871-26.125 1.283 5.28 3.18 9.873 5.632 13.757 11.743 18.606 34.524 14.601 45.968-1.198 3.538-4.882 4.076-6.636 4.076-6.636 1.669 14.918 13.683 20.13 20.561 20.13 7.704 0 15.659-3.641 21.234-16.192a38.367 38.367 0 002.145 3.896c11.743 18.605 34.524 14.6 45.967-1.198a72.898 72.898 0 001.417-2.017l.336 9.799s-6.528 5.988-10.536 9.662c-17.636 16.18-31.047 28.457-32.033 42.753-1.267 18.229 13.517 25.003 24.702 25.891 11.877.943 22.049-5.619 28.3-14.801 5.5-8.082 9.099-25.478 8.835-42.658-.105-6.88-.279-15.628-.415-25.005 6.2-7.199 13.183-16.297 19.614-26.947 7.008-11.606 14.519-27.192 18.364-39.322 0 0 6.526.056 13.49-.4 2.227-.145 2.867.31 2.455 1.943-.497 1.973-8.798 33.99-1.222 55.32 5.186 14.601 16.875 19.299 23.806 19.299 8.113 0 15.874-6.127 20.034-15.225a32.065 32.065 0 001.597 2.902c11.743 18.605 34.444 14.577 45.967-1.198 2.6-3.56 4.076-6.637 4.076-6.637 2.473 15.44 14.48 20.21 21.357 20.21 7.164 0 13.963-2.937 19.48-15.99.23 5.748.593 10.447 1.166 11.928.35.906 2.385 2.044 3.866 2.593 6.553 2.43 13.237 1.28 15.71.781 1.713-.347 3.049-1.721 3.231-5.27.48-9.318.186-24.974 3.01-36.609 4.742-19.527 9.165-27.101 11.264-30.851 1.174-2.101 2.5-2.448 2.547-.224.1 4.499.323 17.711 2.16 35.462 1.349 13.056 3.151 20.772 4.536 23.215 3.953 6.984 8.835 7.314 12.81 7.314 2.529 0 7.817-.698 7.344-5.143-.23-2.166.173-15.554 4.848-34.792 3.053-12.563 8.143-23.914 9.978-28.064.677-1.53.992-.324.981-.089-.386 8.652-1.254 36.95 2.27 52.428 4.778 20.966 18.6 23.312 23.416 23.312 10.282 0 18.691-7.821 21.524-28.4.682-4.953-.328-8.778-3.355-8.778" fill="#262626"/></svg><svg viewBox="0 0 128 128" id="codepen" xmlns="http://www.w3.org/2000/svg"><g clip-rule="evenodd"><path fill="none" d="M0 0h128v128H0z"/><path d="M117 73.204L103.24 64 117 54.796v18.408zM69.5 112.22V86.568L93.348 70.62l19.248 12.872L69.5 112.22zM64 77.012L44.548 64 64 50.988 83.456 64 64 77.012zm-5.5 35.208L15.404 83.492 34.656 70.62 58.5 86.568v25.652zM11 54.796L24.764 64 11 73.204V54.796zM58.5 15.78v25.652L34.656 57.384 15.404 44.508 58.5 15.78zm11 0l43.096 28.728-19.248 12.876L69.5 41.432V15.78zm58.452 28.004c-.012-.084-.032-.16-.044-.24-.028-.156-.056-.312-.096-.46-.024-.092-.06-.18-.088-.268a6.75 6.75 0 00-.14-.4 2.739 2.739 0 00-.124-.268 2.84 2.84 0 00-.188-.364c-.048-.088-.104-.172-.156-.256a5.4 5.4 0 00-.696-.872c-.072-.072-.14-.148-.216-.212a9.118 9.118 0 00-.312-.264c-.084-.064-.164-.128-.248-.188-.032-.02-.06-.048-.092-.068l-58.5-39a5.502 5.502 0 00-6.104 0l-58.496 39c-.032.02-.06.048-.092.068-.088.06-.168.124-.248.188a4.94 4.94 0 00-.312.264c-.076.064-.148.14-.22.212a3.835 3.835 0 00-.272.3 3.536 3.536 0 00-.192.236c-.08.108-.156.22-.228.336a4.437 4.437 0 00-.348.62c-.04.084-.084.176-.12.268-.056.132-.1.264-.144.4-.028.088-.06.176-.084.268-.04.148-.068.304-.096.46-.016.08-.036.156-.044.24A5.245 5.245 0 000 44.5v39c0 .24.02.48.052.72.008.076.028.156.044.236.028.156.056.308.096.46.024.092.056.18.084.268.044.132.088.268.144.404.036.088.08.176.12.264.06.124.12.244.188.368.052.084.104.168.16.252a4.863 4.863 0 00.42.572c.084.1.176.204.272.296a4.94 4.94 0 00.532.48c.08.064.16.128.248.188.032.02.06.048.092.068l58.496 39a5.497 5.497 0 006.104 0l58.5-39c.032-.02.06-.048.092-.068.084-.06.164-.124.248-.188.104-.084.208-.172.312-.264.076-.068.144-.14.216-.216a4.83 4.83 0 00.276-.296c.064-.076.128-.156.188-.24.084-.108.16-.216.232-.332.052-.084.108-.168.156-.252.072-.124.132-.244.188-.368.044-.088.088-.176.124-.264.052-.136.096-.272.14-.404.028-.088.064-.176.088-.268a5.86 5.86 0 00.096-.46c.012-.08.032-.16.044-.236.032-.24.048-.48.048-.72v-39a5.25 5.25 0 00-.048-.716z" fill="#0B0B0A" fill-rule="evenodd"/></g></svg><svg id="facebook" data-name="Layer 1" viewBox="0 0 1022.51 360" xmlns="http://www.w3.org/2000/svg"><defs><style>.ccls-1{fill:#1877f2}</style></defs><path class="ccls-1" d="M166.43 126.68c-9.65 0-12.44 4.28-12.44 13.72v15.66h25.74l-2.58 25.3H154v76.78h-30.89v-76.78H102.3v-25.3h20.81v-15.23c0-25.52 10.29-39 39-39a146.17 146.17 0 0118 1.07v23.81zM181.87 203.88c0-28.52 13.51-50 41.82-50 15.44 0 24.87 7.94 29.38 17.8v-15.62h29.59v102.08h-29.59V242.7c-4.29 9.87-13.94 17.59-29.38 17.59-28.31 0-41.82-21.45-41.82-50zm30.88 6.87c0 15.22 5.57 25.3 19.94 25.3 12.66 0 19.09-9.22 19.09-23.8V202c0-14.58-6.43-23.8-19.09-23.8-14.37 0-19.94 10.08-19.94 25.3zM347 153.91c12 0 23.37 2.58 29.59 6.86l-6.86 21.88a48.6 48.6 0 00-20.59-4.72c-16.73 0-24 9.65-24 26.17v6c0 16.52 7.29 26.17 24 26.17a48.6 48.6 0 0020.59-4.72l6.86 21.87c-6.22 4.29-17.58 6.87-29.59 6.87-36.25 0-52.76-19.52-52.76-50.83v-4.72c0-31.31 16.51-50.83 52.76-50.83zM380.66 211v-9c0-28.95 16.51-48 50.19-48 31.74 0 45.68 19.3 45.68 47.61v16.3h-65c.65 13.94 6.87 20.16 24 20.16 11.59 0 23.81-2.36 32.82-6.22L474 253c-8.15 4.3-24.88 7.51-39.67 7.51-39.09-.01-53.67-19.51-53.67-49.51zm30.88-13.3h37.32v-2.57c0-11.15-4.5-20-18-20-13.95.01-19.32 8.81-19.32 22.53zM591 210.32c0 28.52-13.72 50-42 50-15.44 0-26.16-7.72-30.45-17.59v15.44h-29.16V104.8l30.88-2.8v68.2c4.5-9 14.37-16.3 28.74-16.3 28.31 0 42 21.45 42 50zm-30.88-7.08c0-14.37-5.57-25.09-20.37-25.09-12.66 0-19.52 9-19.52 23.59v10.72c0 14.58 6.86 23.59 19.52 23.59 14.8 0 20.37-10.72 20.37-25.09zM601.33 209.67v-5.14c0-29.39 16.73-50.62 50.83-50.62S703 175.14 703 204.53v5.14c0 29.38-16.73 50.62-50.83 50.62s-50.84-21.24-50.84-50.62zm70.78-7.29c0-13.51-5.58-24.23-20-24.23s-19.95 10.72-19.95 24.23v9.44c0 13.51 5.58 24.23 19.95 24.23s20-10.72 20-24.23zM713.27 209.67v-5.14c0-29.39 16.73-50.62 50.83-50.62s50.83 21.23 50.83 50.62v5.14c0 29.38-16.73 50.62-50.83 50.62s-50.83-21.24-50.83-50.62zm70.78-7.29c0-13.51-5.58-24.23-19.95-24.23s-19.94 10.72-19.94 24.23v9.44c0 13.51 5.57 24.23 19.94 24.23s19.95-10.72 19.95-24.23zM857.39 204.74l30.45-48.68h32.81l-31.95 50.4 33.24 51.68h-32.81l-31.74-50v50H826.5V104.8l30.89-2.8z"/></svg><svg viewBox="0 0 272 92" id="google" xmlns="http://www.w3.org/2000/svg"><path fill="#EA4335" d="M115.75 47.18c0 12.77-9.99 22.18-22.25 22.18s-22.25-9.41-22.25-22.18C71.25 34.32 81.24 25 93.5 25s22.25 9.32 22.25 22.18zm-9.74 0c0-7.98-5.79-13.44-12.51-13.44S80.99 39.2 80.99 47.18c0 7.9 5.79 13.44 12.51 13.44s12.51-5.55 12.51-13.44z"/><path fill="#FBBC05" d="M163.75 47.18c0 12.77-9.99 22.18-22.25 22.18s-22.25-9.41-22.25-22.18c0-12.85 9.99-22.18 22.25-22.18s22.25 9.32 22.25 22.18zm-9.74 0c0-7.98-5.79-13.44-12.51-13.44s-12.51 5.46-12.51 13.44c0 7.9 5.79 13.44 12.51 13.44s12.51-5.55 12.51-13.44z"/><path fill="#4285F4" d="M209.75 26.34v39.82c0 16.38-9.66 23.07-21.08 23.07-10.75 0-17.22-7.19-19.66-13.07l8.48-3.53c1.51 3.61 5.21 7.87 11.17 7.87 7.31 0 11.84-4.51 11.84-13v-3.19h-.34c-2.18 2.69-6.38 5.04-11.68 5.04-11.09 0-21.25-9.66-21.25-22.09 0-12.52 10.16-22.26 21.25-22.26 5.29 0 9.49 2.35 11.68 4.96h.34v-3.61h9.25zm-8.56 20.92c0-7.81-5.21-13.52-11.84-13.52-6.72 0-12.35 5.71-12.35 13.52 0 7.73 5.63 13.36 12.35 13.36 6.63 0 11.84-5.63 11.84-13.36z"/><path fill="#34A853" d="M225 3v65h-9.5V3h9.5z"/><path fill="#EA4335" d="M262.02 54.48l7.56 5.04c-2.44 3.61-8.32 9.83-18.48 9.83-12.6 0-22.01-9.74-22.01-22.18 0-13.19 9.49-22.18 20.92-22.18 11.51 0 17.14 9.16 18.98 14.11l1.01 2.52-29.65 12.28c2.27 4.45 5.8 6.72 10.75 6.72 4.96 0 8.4-2.44 10.92-6.14zm-23.27-7.98l19.82-8.23c-1.09-2.77-4.37-4.7-8.23-4.7-4.95 0-11.84 4.37-11.59 12.93z"/><path fill="#4285F4" d="M35.29 41.41V32H67c.31 1.64.47 3.58.47 5.68 0 7.06-1.93 15.79-8.15 22.01-6.05 6.3-13.78 9.66-24.02 9.66C16.32 69.35.36 53.89.36 34.91.36 15.93 16.32.47 35.3.47c10.5 0 17.98 4.12 23.6 9.49l-6.64 6.64c-4.03-3.78-9.49-6.72-16.97-6.72-13.86 0-24.7 11.17-24.7 25.03 0 13.86 10.84 25.03 24.7 25.03 8.99 0 14.11-3.61 17.39-6.89 2.66-2.66 4.41-6.46 5.1-11.65l-22.49.01z"/></svg><svg viewBox="0 0 803 149" id="twitter" xmlns="http://www.w3.org/2000/svg"><path d="M501.79 91.544c-.118.02-.239.012-.358.033l.618-.101c-.096.014-.164.053-.26.068zM87.908 120.608c0 4.03-1.445 7.485-4.336 10.36-2.89 2.878-6.354 4.316-10.4 4.316H44.04c-12.136 0-22.508-4.288-31.122-12.873C4.303 113.824 0 103.491 0 91.394V32.558c0-4.147 1.434-7.628 4.303-10.454 2.868-2.821 6.373-4.235 10.509-4.235 4.015 0 7.467 1.44 10.33 4.32 2.873 2.874 4.314 6.325 4.314 10.359v21.304H70.93c3.765 0 6.99 1.334 9.683 4.005 2.69 2.667 4.03 5.866 4.03 9.605 0 3.73-1.34 6.937-4.02 9.606-2.68 2.665-5.899 4.001-9.648 4.001h-41.52v10.31c0 4.045 1.411 7.48 4.25 10.31 2.833 2.826 6.274 4.24 10.322 4.24h29.138c4.044 0 7.515 1.442 10.406 4.319 2.891 2.879 4.336 6.332 4.336 10.36zM429.09 120.608c0 4.03-1.445 7.485-4.334 10.36-2.889 2.878-6.354 4.316-10.399 4.316h-13.232c-12.136 0-22.508-4.288-31.122-12.873-8.613-8.585-12.916-18.92-12.916-31.017V32.558c0-4.147 1.432-7.628 4.303-10.454 2.868-2.821 6.37-4.235 10.51-4.235 4.013 0 7.466 1.44 10.328 4.32 2.873 2.874 4.313 6.325 4.313 10.359v21.304h25.576c3.765 0 6.99 1.336 9.68 4.005 2.692 2.667 4.03 5.866 4.03 9.605 0 3.73-1.338 6.935-4.017 9.604-2.68 2.665-5.9 4.001-9.646 4.001H386.54V91.38c0 4.044 1.412 7.478 4.25 10.31 2.833 2.825 6.274 4.239 10.32 4.239h13.24c4.042 0 7.516 1.442 10.405 4.319 2.891 2.879 4.335 6.332 4.335 10.36zM352.073 120.608c0 4.03-1.445 7.485-4.334 10.36-2.889 2.878-6.354 4.316-10.398 4.316h-13.233c-12.136 0-22.508-4.288-31.12-12.873-8.613-8.587-12.916-18.92-12.916-31.017V32.558c0-4.147 1.435-7.628 4.303-10.454 2.869-2.821 6.371-4.235 10.51-4.235 4.013 0 7.466 1.44 10.328 4.32 2.873 2.874 4.313 6.325 4.313 10.359v21.304h25.576c3.765 0 6.99 1.336 9.68 4.005 2.693 2.667 4.03 5.866 4.03 9.605 0 3.73-1.337 6.935-4.017 9.604-2.68 2.665-5.9 4.001-9.646 4.001h-25.62V91.38c0 4.044 1.411 7.478 4.249 10.31 2.833 2.825 6.274 4.239 10.32 4.239h13.24c4.043 0 7.516 1.442 10.405 4.319 2.883 2.879 4.33 6.332 4.33 10.36zM229.95 94.22c0 11.317-4.023 20.991-12.08 29.022-8.056 8.029-17.757 12.042-29.105 12.042-10.382 0-19.517-3.498-27.41-10.503-7.783 7.005-16.868 10.503-27.246 10.503-11.347 0-21.054-4.013-29.112-12.042-8.053-8.029-12.079-17.705-12.079-29.023V65.537c0-3.882 1.348-7.138 4.055-9.779 2.694-2.643 5.94-3.964 9.717-3.964 3.786 0 7.026 1.321 9.722 3.964 2.7 2.643 4.052 5.905 4.052 9.787v28.693c0 3.783 1.325 6.986 3.97 9.63 2.651 2.644 5.87 3.959 9.654 3.959 3.677 0 6.839-1.315 9.488-3.958 2.649-2.645 3.97-5.85 3.97-9.631V65.705c0-3.773 1.358-7.031 4.06-9.785 2.713-2.747 6.018-4.126 9.915-4.126 3.785 0 7.033 1.348 9.744 4.048 2.71 2.694 4.062 5.932 4.062 9.703v28.693c0 3.783 1.326 6.986 3.975 9.63 2.645 2.644 5.813 3.959 9.485 3.959 3.786 0 7.005-1.315 9.648-3.958 2.65-2.645 3.974-5.85 3.974-9.631V65.545c0-3.771 1.352-7.009 4.055-9.703 2.698-2.698 5.942-4.048 9.717-4.048 3.784 0 7.028 1.348 9.724 4.042 2.7 2.694 4.05 5.928 4.05 9.701v28.682zM269.735 29.34c0 4.027-1.44 7.482-4.33 10.358-2.89 2.877-6.353 4.32-10.391 4.32-4.049 0-7.51-1.443-10.401-4.32-2.88-2.874-4.325-6.331-4.325-10.357 0-4.032 1.444-7.483 4.325-10.36 2.891-2.88 6.354-4.317 10.4-4.317 4.04 0 7.504 1.437 10.391 4.317 2.891 2.877 4.331 6.33 4.331 10.36zM269.735 120.591c0 4.036-1.44 7.493-4.33 10.374-2.89 2.88-6.353 4.317-10.391 4.317-4.049 0-7.51-1.436-10.401-4.317-2.88-2.879-4.325-6.338-4.325-10.374V66.49c0-4.036 1.444-7.493 4.325-10.372 2.891-2.88 6.354-4.321 10.4-4.321 4.04 0 7.504 1.44 10.391 4.321 2.891 2.877 4.331 6.336 4.331 10.372v54.102zM604.226 67.464c0 3.732-1.342 6.937-4.028 9.608-2.681 2.666-5.899 4.001-9.65 4.001h-20.11c-3.756 0-6.947 1.31-9.573 3.932-2.632 2.616-3.941 5.796-3.941 9.543v27.104c0 3.738-1.336 6.952-4.016 9.621-2.68 2.68-5.89 4.01-9.64 4.01-3.746 0-6.963-1.33-9.639-4.006-2.68-2.671-4.017-5.874-4.017-9.619v-27.09c0-11.221 3.99-20.814 11.978-28.775 7.988-7.959 17.611-11.943 28.867-11.943h20.096c3.753 0 6.968 1.336 9.647 4.007 2.682 2.67 4.026 5.868 4.026 9.607z" fill="#3cf"/><path d="M475.19 135.282c-11.589 0-22.51-4.403-31.128-13.21-8.61-8.81-11.92-18.406-11.92-30.82 0 0-.839-39.477 43.807-39.477 34.932 0 45.566 24.538 45.566 36.652 0 9.63-4.405 13.047-14.43 13.047h-44.647s-1.617 10.216 18.722 10.216h25.48c6.514 0 11.794 5.28 11.794 11.796 0 6.515-5.28 11.794-11.794 11.794h-31.45zM462.735 82.67h29.314c0-9.632-14.58-9.632-14.58-9.632s-14.734-.002-14.734 9.632zM802.977 68.725c-7.604 1.3-18.633-.05-24.476-2.482 12.143-1.006 20.364-6.525 23.532-14.018-4.376 2.694-17.97 5.628-25.467 2.831a91.218 91.218 0 00-1.192-4.959c-5.708-21.013-25.29-37.946-45.794-35.898a86.69 86.69 0 015.024-1.863c2.245-.809 15.498-2.972 13.413-7.644-1.764-4.12-17.953 3.099-20.998 4.049 4.024-1.508 10.68-4.11 11.387-8.741-6.161.845-12.212 3.763-16.884 8.004 1.69-1.816 2.97-4.03 3.24-6.418-16.443 10.518-26.048 31.705-33.816 52.272-6.1-5.924-11.521-10.587-16.37-13.183-13.61-7.296-29.888-14.92-55.433-24.416-.786 8.46 4.177 19.717 18.47 27.192-3.094-.418-8.757.52-13.28 1.595 1.841 9.703 7.868 17.686 24.192 21.544-7.459.49-11.32 2.2-14.81 5.851 3.395 6.747 11.695 14.677 26.6 13.046-16.587 7.159-6.765 20.41 6.731 18.431-23.01 23.805-59.301 22.039-80.141 2.146 54.401 74.21 172.672 43.883 190.289-27.594 13.218.106 20.97-4.576 25.783-9.745z" fill="#3cf"/></svg></svg>